<svg width="77" height="77" viewBox="0 0 77 77" fill="none" xmlns="http://www.w3.org/2000/svg">
<path d="M73.8834 6.4596C72.257 6.4596 70.9418 5.14439 70.9418 3.51804C70.9418 1.8917 72.257 0.576474 73.8834 0.576474C75.5097 0.576474 76.8249 1.89169 76.8249 3.51804C76.8249 5.14438 75.5097 6.4596 73.8834 6.4596ZM76.8249 21.1109C76.8249 19.4845 75.5097 18.1693 73.8834 18.1693C72.257 18.1693 70.9418 19.4845 70.9418 21.1108C70.9418 22.7372 72.257 24.0524 73.8834 24.0524C75.5097 24.0524 76.8249 22.7372 76.8249 21.1109ZM76.825 38.7037C76.825 37.0773 75.5097 35.7621 73.8834 35.7621C72.2571 35.7621 70.9418 37.0773 70.9418 38.7037C70.9418 40.33 72.257 41.6452 73.8834 41.6452C75.5097 41.6452 76.825 40.33 76.825 38.7037ZM76.825 56.2965C76.825 54.6701 75.5097 53.3549 73.8834 53.3549C72.257 53.3549 70.9418 54.6701 70.9418 56.2965C70.9418 57.9228 72.257 59.2381 73.8834 59.2381C75.5097 59.2381 76.825 57.9228 76.825 56.2965ZM76.825 73.8893C76.825 72.263 75.5097 70.9477 73.8834 70.9477C72.257 70.9477 70.9418 72.263 70.9418 73.8893C70.9418 75.5157 72.257 76.8309 73.8834 76.8309C75.5027 76.8238 76.8179 75.5086 76.825 73.8893ZM59.2321 3.51804C59.2321 1.8917 57.9169 0.576475 56.2906 0.576475C54.6642 0.576475 53.349 1.89169 53.349 3.51804C53.349 5.14438 54.6642 6.4596 56.2906 6.4596C57.9169 6.4596 59.2321 5.14439 59.2321 3.51804ZM59.2321 21.1108C59.2321 19.4845 57.9169 18.1693 56.2906 18.1693C54.6642 18.1693 53.349 19.4845 53.349 21.1109C53.349 22.7372 54.6642 24.0524 56.2906 24.0524C57.9169 24.0524 59.2321 22.7372 59.2321 21.1108ZM59.2321 38.7037C59.2321 37.0773 57.9169 35.7621 56.2906 35.7621C54.6642 35.7621 53.349 37.0773 53.349 38.7037C53.349 40.33 54.6642 41.6452 56.2906 41.6452C57.9169 41.6452 59.2321 40.33 59.2321 38.7037ZM59.2321 56.2965C59.2321 54.6701 57.9169 53.3549 56.2906 53.3549C54.6642 53.3549 53.349 54.6702 53.349 56.2965C53.349 57.9228 54.6642 59.2381 56.2906 59.2381C57.9169 59.2381 59.2321 57.9228 59.2321 56.2965ZM59.2321 73.8893C59.2321 72.263 57.9169 70.9477 56.2906 70.9477C54.6642 70.9477 53.349 72.263 53.349 73.8893C53.349 75.5157 54.6642 76.8309 56.2906 76.8309C57.9169 76.8309 59.2321 75.5157 59.2321 73.8893ZM41.6393 3.51804C41.6393 1.89169 40.3241 0.576469 38.6978 0.576469C37.0714 0.576469 35.7562 1.89169 35.7562 3.51804C35.7562 5.14438 37.0714 6.4596 38.6978 6.4596C40.3241 6.4596 41.6393 5.14438 41.6393 3.51804ZM41.6393 21.1109C41.6393 19.4845 40.3241 18.1693 38.6978 18.1693C37.0714 18.1693 35.7562 19.4845 35.7562 21.1109C35.7562 22.7372 37.0714 24.0524 38.6978 24.0524C40.3241 24.0524 41.6393 22.7372 41.6393 21.1109ZM41.6393 38.7037C41.6393 37.0773 40.3241 35.7621 38.6978 35.7621C37.0714 35.7621 35.7562 37.0773 35.7562 38.7037C35.7562 40.33 37.0714 41.6452 38.6977 41.6452C40.3241 41.6452 41.6393 40.33 41.6393 38.7037ZM41.6393 56.2965C41.6393 54.6701 40.3241 53.3549 38.6977 53.3549C37.0714 53.3549 35.7562 54.6701 35.7562 56.2965C35.7562 57.9228 37.0714 59.2381 38.6977 59.2381C40.3241 59.2381 41.6393 57.9228 41.6393 56.2965ZM41.6393 73.8893C41.6393 72.263 40.3241 70.9478 38.6978 70.9478C37.0714 70.9478 35.7562 72.263 35.7562 73.8893C35.7562 75.5157 37.0714 76.8309 38.6978 76.8309C40.3241 76.8309 41.6464 75.5086 41.6393 73.8893ZM24.0465 3.51804C24.0465 1.89169 22.7313 0.576475 21.1049 0.576475C19.4786 0.576475 18.1634 1.8917 18.1634 3.51804C18.1634 5.14439 19.4786 6.4596 21.1049 6.4596C22.7313 6.4596 24.0465 5.14438 24.0465 3.51804ZM24.0465 21.1109C24.0465 19.4845 22.7313 18.1693 21.1049 18.1693C19.4786 18.1693 18.1634 19.4845 18.1634 21.1109C18.1634 22.7372 19.4786 24.0524 21.1049 24.0524C22.7313 24.0524 24.0465 22.7372 24.0465 21.1109ZM24.0465 38.7037C24.0465 37.0773 22.7313 35.7621 21.1049 35.7621C19.4786 35.7621 18.1634 37.0773 18.1634 38.7037C18.1634 40.33 19.4786 41.6452 21.1049 41.6452C22.7313 41.6452 24.0465 40.33 24.0465 38.7037ZM24.0465 56.2965C24.0465 54.6701 22.7313 53.3549 21.1049 53.3549C19.4786 53.3549 18.1634 54.6701 18.1634 56.2965C18.1634 57.9228 19.4786 59.238 21.1049 59.238C22.7313 59.238 24.0536 57.9158 24.0465 56.2965ZM24.0465 73.8893C24.0465 72.263 22.7313 70.9477 21.1049 70.9477C19.4786 70.9477 18.1634 72.263 18.1634 73.8893C18.1634 75.5156 19.4786 76.8309 21.1049 76.8309C22.7313 76.8309 24.0536 75.5086 24.0465 73.8893ZM6.45368 3.51804C6.45368 1.89169 5.13847 0.576474 3.51212 0.576474C1.88577 0.576474 0.570553 1.8917 0.570553 3.51804C0.570553 5.14439 1.88577 6.4596 3.51211 6.4596C5.13846 6.4596 6.45368 5.14438 6.45368 3.51804ZM6.45368 21.1109C6.45368 19.4845 5.13847 18.1693 3.51212 18.1693C1.88577 18.1693 0.570551 19.4845 0.570551 21.1109C0.570551 22.7372 1.88577 24.0524 3.51211 24.0524C5.13846 24.0524 6.45368 22.7372 6.45368 21.1109ZM6.45368 38.7037C6.45368 37.0773 5.13846 35.7621 3.51211 35.7621C1.88577 35.7621 0.570556 37.0773 0.570556 38.7037C0.570556 40.33 1.88578 41.6452 3.51212 41.6452C5.13847 41.6452 6.46075 40.323 6.45368 38.7037ZM6.45368 56.2965C6.45368 54.6702 5.13846 53.3549 3.51211 53.3549C1.88577 53.3549 0.570556 54.6701 0.570556 56.2965C0.570556 57.9228 1.88578 59.2381 3.51212 59.2381C5.13847 59.2381 6.46075 57.9158 6.45368 56.2965ZM6.46075 73.8822C6.46075 72.2559 5.14553 70.9407 3.51919 70.9407C1.89284 70.9407 0.577623 72.2559 0.577623 73.8822C0.577623 75.5086 1.89284 76.8238 3.51918 76.8238C5.13846 76.8309 6.46075 75.5086 6.46075 73.8822Z" fill="#9D9B9B"/>
</svg>
