<svg width="297" height="104" viewBox="0 0 297 104" fill="none" xmlns="http://www.w3.org/2000/svg">
<path d="M0 100V70.3848C0 49.7377 10.7453 33 24 33V62.6169C24 83.2632 13.2557 100 0 100Z" fill="#3BB77E"/>
<path d="M78 0H38.4296C7.59628 0 0 9.8502 0 22H39.5695C66.501 22 78 12.1508 78 0Z" fill="#3BB77E"/>
<path d="M68 36H49.229C39.1611 36 31 44.0593 31 54H49.7702C59.8389 54 68 45.9416 68 36Z" fill="#3BB77E"/>
<path d="M86.8661 103.752C81.1007 103.752 76.0247 102.624 71.6381 100.368C67.3141 98.112 63.9614 95.0413 61.5801 91.156C59.1987 87.208 58.0081 82.7273 58.0081 77.714C58.0081 72.638 59.1674 68.1573 61.4861 64.272C63.8674 60.324 67.0947 57.2533 71.1681 55.06C75.2414 52.804 79.8474 51.676 84.9861 51.676C89.9367 51.676 94.3861 52.7413 98.3341 54.872C102.345 56.94 105.509 59.948 107.828 63.896C110.147 67.7813 111.306 72.45 111.306 77.902C111.306 78.466 111.275 79.124 111.212 79.876C111.149 80.5653 111.087 81.2233 111.024 81.85H69.9461V73.296H103.316L97.6761 75.834C97.6761 73.202 97.1434 70.9147 96.0781 68.972C95.0127 67.0293 93.5401 65.5253 91.6601 64.46C89.7801 63.332 87.5867 62.768 85.0801 62.768C82.5734 62.768 80.3487 63.332 78.4061 64.46C76.5261 65.5253 75.0534 67.0607 73.9881 69.066C72.9227 71.0087 72.3901 73.3273 72.3901 76.022V78.278C72.3901 81.0353 72.9854 83.4793 74.1761 85.61C75.4294 87.678 77.1527 89.276 79.3461 90.404C81.6021 91.4693 84.2341 92.002 87.2421 92.002C89.9367 92.002 92.2867 91.5947 94.2921 90.78C96.3601 89.9653 98.2401 88.7433 99.9321 87.114L107.734 95.574C105.415 98.206 102.501 100.243 98.9921 101.684C95.4827 103.063 91.4407 103.752 86.8661 103.752Z" fill="#3BB77E"/>
<path d="M121.069 103V33.252H135.733V103H121.069Z" fill="#3BB77E"/>
<path d="M149.342 103V52.428H164.006V103H149.342ZM156.674 45.378C153.98 45.378 151.786 44.5947 150.094 43.028C148.402 41.4613 147.556 39.5187 147.556 37.2C147.556 34.8813 148.402 32.9387 150.094 31.372C151.786 29.8053 153.98 29.022 156.674 29.022C159.369 29.022 161.562 29.774 163.254 31.278C164.946 32.7193 165.792 34.5993 165.792 36.918C165.792 39.362 164.946 41.3987 163.254 43.028C161.625 44.5947 159.432 45.378 156.674 45.378Z" fill="#3BB77E"/>
<path d="M171.224 103L193.878 73.296L193.596 81.38L171.882 52.428H188.332L202.056 71.322L195.852 71.51L210.046 52.428H225.65L203.842 81.098V73.202L226.402 103H209.764L195.382 82.884L201.492 83.73L187.204 103H171.224Z" fill="#3BB77E"/>
<path d="M173 22C173 18.134 176.134 15 180 15H290C293.866 15 297 18.134 297 22V42C297 45.866 293.866 49 290 49H180C176.134 49 173 45.866 173 42V22Z" fill="#2D3748"/>
<path d="M184.568 36.848H184.848C185.315 37.0907 185.875 37.324 186.528 37.548C187.181 37.772 187.891 37.9587 188.656 38.108C189.44 38.2387 190.224 38.304 191.008 38.304C191.829 38.304 192.511 38.248 193.052 38.136C193.612 38.024 194.032 37.8467 194.312 37.604C194.611 37.3427 194.76 36.9973 194.76 36.568C194.76 36.0267 194.573 35.6253 194.2 35.364C193.845 35.1027 193.201 34.8973 192.268 34.748L190.42 34.468C189.039 34.2627 187.863 33.908 186.892 33.404C185.94 32.9 185.221 32.2373 184.736 31.416C184.251 30.576 184.008 29.568 184.008 28.392C184.008 26.9547 184.344 25.7227 185.016 24.696C185.707 23.6693 186.752 22.8853 188.152 22.344C189.552 21.784 191.344 21.504 193.528 21.504C194.499 21.504 195.432 21.588 196.328 21.756C197.224 21.9053 197.971 22.1107 198.568 22.372V26.6H198.26C197.7 26.3387 196.981 26.096 196.104 25.872C195.227 25.648 194.247 25.536 193.164 25.536C192.231 25.536 191.437 25.6293 190.784 25.816C190.149 26.0027 189.664 26.292 189.328 26.684C188.992 27.0573 188.824 27.5333 188.824 28.112C188.824 28.8587 189.067 29.3907 189.552 29.708C190.037 30.0253 190.821 30.2773 191.904 30.464L193.668 30.744C194.769 30.912 195.768 31.2107 196.664 31.64C197.579 32.0693 198.297 32.6667 198.82 33.432C199.361 34.1973 199.632 35.2053 199.632 36.456C199.632 37.52 199.408 38.4347 198.96 39.2C198.512 39.9467 197.887 40.5533 197.084 41.02C196.3 41.468 195.385 41.7947 194.34 42C193.313 42.224 192.203 42.336 191.008 42.336C190.168 42.336 189.337 42.28 188.516 42.168C187.713 42.0747 186.967 41.944 186.276 41.776C185.585 41.608 185.016 41.4307 184.568 41.244V36.848Z" fill="white"/>
<path d="M202.032 31.92C202.032 29.8667 202.433 28.056 203.236 26.488C204.038 24.92 205.205 23.6973 206.736 22.82C208.266 21.9427 210.124 21.504 212.308 21.504C214.473 21.504 216.321 21.9427 217.852 22.82C219.401 23.6973 220.577 24.92 221.38 26.488C222.182 28.056 222.584 29.8667 222.584 31.92C222.584 33.9733 222.182 35.784 221.38 37.352C220.577 38.92 219.401 40.1427 217.852 41.02C216.321 41.8973 214.473 42.336 212.308 42.336C210.124 42.336 208.266 41.9067 206.736 41.048C205.205 40.1707 204.038 38.948 203.236 37.38C202.433 35.812 202.032 33.992 202.032 31.92ZM207.1 31.92C207.1 33.1333 207.286 34.216 207.66 35.168C208.052 36.1013 208.63 36.8293 209.396 37.352C210.18 37.8747 211.15 38.136 212.308 38.136C213.465 38.136 214.426 37.8747 215.192 37.352C215.957 36.8293 216.526 36.1013 216.9 35.168C217.292 34.216 217.488 33.1333 217.488 31.92C217.488 30.7067 217.292 29.6333 216.9 28.7C216.526 27.748 215.957 27.0107 215.192 26.488C214.426 25.9653 213.465 25.704 212.308 25.704C211.15 25.704 210.18 25.9653 209.396 26.488C208.63 27.0107 208.052 27.748 207.66 28.7C207.286 29.6333 207.1 30.7067 207.1 31.92Z" fill="white"/>
<path d="M225.192 31.92C225.192 29.8107 225.602 27.9813 226.424 26.432C227.264 24.864 228.505 23.6507 230.148 22.792C231.809 21.9333 233.872 21.504 236.336 21.504C237.288 21.504 238.146 21.5787 238.912 21.728C239.677 21.8773 240.284 22.0453 240.732 22.232V26.516H240.424C239.976 26.2733 239.425 26.0773 238.772 25.928C238.118 25.7787 237.409 25.704 236.644 25.704C235.169 25.704 233.956 25.956 233.004 26.46C232.07 26.964 231.38 27.6827 230.932 28.616C230.484 29.5493 230.26 30.6507 230.26 31.92C230.26 33.1893 230.484 34.2907 230.932 35.224C231.38 36.1573 232.07 36.876 233.004 37.38C233.956 37.884 235.169 38.136 236.644 38.136C237.409 38.136 238.118 38.0613 238.772 37.912C239.425 37.7627 239.976 37.5667 240.424 37.324H240.732V41.608C240.284 41.7947 239.677 41.9627 238.912 42.112C238.146 42.2613 237.288 42.336 236.336 42.336C233.872 42.336 231.809 41.916 230.148 41.076C228.505 40.236 227.264 39.0413 226.424 37.492C225.602 35.924 225.192 34.0667 225.192 31.92Z" fill="white"/>
<path d="M244.3 21.84H249.284V42H244.3V21.84Z" fill="white"/>
<path d="M252.366 42L254.606 28.784C254.849 27.328 255.241 26.1333 255.782 25.2C256.323 24.2667 256.995 23.5387 257.798 23.016C258.619 22.4933 259.581 22.1293 260.682 21.924C261.783 21.7187 263.015 21.616 264.378 21.616C265.162 21.616 266.011 21.6627 266.926 21.756C267.841 21.8493 268.671 21.98 269.418 22.148L269.474 22.484C269.399 22.82 269.343 23.268 269.306 23.828C269.287 24.388 269.269 24.9573 269.25 25.536C269.25 26.1147 269.25 26.5907 269.25 26.964V42H264.294V27.468C264.294 26.9267 264.313 26.432 264.35 25.984C264.406 25.5173 264.471 25.0973 264.546 24.724L265.19 25.928C264.985 25.872 264.705 25.8347 264.35 25.816C264.014 25.7787 263.697 25.76 263.398 25.76C262.521 25.76 261.821 25.8813 261.298 26.124C260.775 26.348 260.374 26.6933 260.094 27.16C259.833 27.6267 259.637 28.224 259.506 28.952L257.35 42H252.366ZM255.95 36.848V32.872H266.59V36.848H255.95Z" fill="white"/>
<path d="M273.53 42V21.84H278.514V37.688H286.186V42H273.53Z" fill="white"/>
</svg>
