<svg width="90" height="90" viewBox="0 0 90 90" fill="none" xmlns="http://www.w3.org/2000/svg">
<path d="M6.16992 23.17L22.7299 6.60999C19.7899 8.28999 17.0599 10.3 14.5899 12.58L12.1399 15.03C9.85992 17.5 7.84992 20.23 6.16992 23.17Z" fill="#9D9B9B"/>
<path d="M1.22998 36.33L35.89 1.66999C34.93 1.85999 33.99 2.08999 33.05 2.33999L1.89996 33.49C1.64996 34.43 1.41998 35.37 1.22998 36.33Z" fill="#9D9B9B"/>
<path d="M0.350098 45.14C0.350098 45.23 0.350098 45.33 0.350098 45.42L44.9801 0.799988C44.8901 0.799988 44.7901 0.799988 44.7001 0.799988C44.0501 0.799988 43.4101 0.819988 42.7801 0.839988L0.400085 43.22C0.370085 43.86 0.350098 44.5 0.350098 45.14Z" fill="#9D9B9B"/>
<path d="M1.04001 52.96L52.51 1.48999C51.89 1.37999 51.26 1.27999 50.64 1.19999L0.75 51.09C0.83 51.71 0.930009 52.34 1.04001 52.96Z" fill="#9D9B9B"/>
<path d="M2.72018 59.49L59.0402 3.16999C58.5002 2.97999 57.9502 2.80999 57.4002 2.64999L2.2002 57.85C2.3702 58.4 2.54018 58.95 2.72018 59.49Z" fill="#9D9B9B"/>
<path d="M5.16998 65.26L64.82 5.60999C64.34 5.36999 63.85 5.12999 63.36 4.89999L4.45996 63.8C4.68996 64.29 4.91998 64.78 5.16998 65.26Z" fill="#9D9B9B"/>
<path d="M8.24988 70.4L69.9599 8.68999C69.5299 8.38999 69.0999 8.09999 68.6599 7.81999L7.37988 69.1C7.65988 69.54 7.94988 69.97 8.24988 70.4Z" fill="#9D9B9B"/>
<path d="M11.8899 74.98L74.5299 12.34C74.1499 12 73.7699 11.66 73.3799 11.33L10.8799 73.83C11.2099 74.21 11.5499 74.6 11.8899 74.98Z" fill="#9D9B9B"/>
<path d="M16.0799 79.01L78.5699 16.52C78.2399 16.13 77.8999 15.74 77.5599 15.36L14.9199 78C15.2999 78.34 15.6799 78.68 16.0799 79.01Z" fill="#9D9B9B"/>
<path d="M20.8 82.5L82.06 21.24C81.78 20.8 81.49 20.37 81.19 19.94L19.5 81.64C19.93 81.93 20.36 82.22 20.8 82.5Z" fill="#9D9B9B"/>
<path d="M26.1101 85.41L84.9601 26.56C84.7301 26.07 84.5001 25.58 84.2501 25.1L24.6401 84.71C25.1301 84.95 25.6201 85.18 26.1101 85.41Z" fill="#9D9B9B"/>
<path d="M32.0799 87.66L87.2199 32.52C87.0599 31.97 86.88 31.42 86.7 30.88L30.4399 87.14C30.9799 87.33 31.5299 87.5 32.0799 87.66Z" fill="#9D9B9B"/>
<path d="M38.86 89.1L88.66 39.3C88.58 38.67 88.48 38.04 88.37 37.42L36.98 88.81C37.6 88.92 38.23 89.02 38.86 89.1Z" fill="#9D9B9B"/>
<path d="M44.7003 89.49C45.3903 89.49 46.0703 89.47 46.7403 89.44L88.9903 47.19C89.0203 46.51 89.0403 45.83 89.0403 45.15C89.0403 45.09 89.0403 45.04 89.0403 44.98L44.5303 89.49C44.5803 89.48 44.6403 89.49 44.7003 89.49Z" fill="#9D9B9B"/>
<path d="M56.4999 87.89L87.4499 56.94C87.7099 56 87.9399 55.05 88.1399 54.09L53.6499 88.58C54.6099 88.38 55.5599 88.15 56.4999 87.89Z" fill="#9D9B9B"/>
<path d="M83.0602 67.38L66.9302 83.51C73.6102 79.63 79.1802 74.06 83.0602 67.38Z" fill="#9D9B9B"/>
</svg>
